<?xml version="1.0" encoding="utf-8"?>
<!-- Generator: Adobe Illustrator 19.0.1, SVG Export Plug-In . SVG Version: 6.00 Build 0)  -->
<!DOCTYPE svg PUBLIC "-//W3C//DTD SVG 1.1//EN" "http://www.w3.org/Graphics/SVG/1.1/DTD/svg11.dtd">
<svg version="1.1" id="Layer_1" xmlns="http://www.w3.org/2000/svg" xmlns:xlink="http://www.w3.org/1999/xlink" x="0px" y="0px"
	 viewBox="-410.9 222.9 64.9 90" style="enable-background:new -410.9 222.9 64.9 90;" xml:space="preserve">
<path d="M-352.5,262.9c-0.4,0-1.4,0.1-2.5,0.5c-0.3-3.6-3.3-6.5-7-6.5c-1.7,0-3.2,0.6-4.4,1.6c-1-2.7-3.6-4.6-6.6-4.6
	c-1.8,0-3.6,0.5-5,1.6v-7.3c4.1-2.3,7-6.7,7-11.8c0-7.4-6.1-13.5-13.5-13.5s-13.5,6.1-13.5,13.5c0,5,2.7,9.4,6.8,11.7l0.1,31.6
	l-5.8-6c-1.5-1.6-3.6-2.4-5.8-2.4s-4.2,0.9-5.8,2.4c-3.2,3.2-3.2,8.4-0.1,11.5c0.1,0.1,5.3,5.9,12.7,13.3l1.2,1.2
	c7.1,7.1,13.2,13.2,25.4,13.2c12.6,0,16.9-6.3,20.1-12.8c3.1-6.2,3.2-30.2,3.2-31.2C-346,265.7-349.1,262.9-352.5,262.9z
	 M-395,236.4c0-5.8,4.7-10.5,10.5-10.5s10.5,4.7,10.5,10.5c0,3.3-1.6,6.3-4,8.2v-7.2c0-4.5-2.6-7.5-6.5-7.5c-3.9,0-6.8,3.2-6.8,7.5
	l0,7C-393.6,242.5-395,239.6-395,236.4z M-388.3,237.4c0-2.1,1-4.5,3.8-4.5c3.3,0,3.5,3.4,3.5,4.5v28c0,0.8,0.7,1.5,1.5,1.5
	s1.5-0.7,1.5-1.5v-4c0-3.3,3-4.5,5-4.5c2.2,0,4,1.8,4,4v5.5c0,0.8,0.7,1.5,1.5,1.5s1.5-0.7,1.5-1.5v-2.5c0-2.2,1.8-4,4-4s4,1.8,4,4
	v6.5c0,0.8,0.7,1.5,1.5,1.5s1.5-0.7,1.5-1.5v-3.8c0.6-0.3,1.8-0.7,2.5-0.7c1.8,0,3.5,1.5,3.5,3c0,6.7-0.5,25.2-2.8,29.8
	c-3.1,6.1-6.5,11.2-17.4,11.2c-10.9,0-16.4-5.4-23.2-12.3l-1.2-1.2c-7.4-7.4-12.5-13.1-12.7-13.3c-1-1-1.5-2.3-1.5-3.7
	c0-1.4,0.5-2.7,1.5-3.7c1-1,2.3-1.5,3.7-1.5s2.7,0.5,3.6,1.5l8.3,8.7c0.4,0.4,1.1,0.6,1.6,0.4c0.6-0.2,0.9-0.8,0.9-1.4L-388.3,237.4
	z"/>
</svg>
